<?xml version="1.0" encoding="iso-8859-1"?>
<!-- Generator: Adobe Illustrator 18.0.0, SVG Export Plug-In . SVG Version: 6.00 Build 0)  -->
<!DOCTYPE svg PUBLIC "-//W3C//DTD SVG 1.1//EN" "http://www.w3.org/Graphics/SVG/1.1/DTD/svg11.dtd">
<svg version="1.1" id="Capa_1" xmlns="http://www.w3.org/2000/svg" xmlns:xlink="http://www.w3.org/1999/xlink" x="0px" y="0px"
	 viewBox="0 0 295 295" style="enable-background:new 0 0 295 295;" xml:space="preserve">
<path d="M290.156,23.89c-0.482-10.311-8.733-18.562-19.044-19.044L168.005,0.023c-5.62-0.272-11.097,1.855-15.077,5.836
	L5.858,152.93C2.108,156.681,0,161.767,0,167.072s2.107,10.392,5.858,14.143l107.929,107.928c3.904,3.905,9.023,5.857,14.142,5.857
	c5.118,0,10.237-1.953,14.143-5.857l147.069-147.069c3.98-3.98,6.1-9.454,5.837-15.077L290.156,23.89z M252.481,76.087
	c-9.269,9.269-24.298,9.269-33.567,0s-9.269-24.298,0-33.567s24.298-9.269,33.567,0S261.751,66.817,252.481,76.087z"/>
<g>
</g>
<g>
</g>
<g>
</g>
<g>
</g>
<g>
</g>
<g>
</g>
<g>
</g>
<g>
</g>
<g>
</g>
<g>
</g>
<g>
</g>
<g>
</g>
<g>
</g>
<g>
</g>
<g>
</g>
</svg>
